/* XPM */
static char *f31f4b56574d447f9966250623459e98[] = {
/* columns rows colors chars-per-pixel */
"16 16 202 2 ",
"   c gray13",
".  c #252525",
"X  c gray16",
"o  c #2A2A2A",
"O  c gray18",
"+  c #2F2F2F",
"@  c gray19",
"#  c #393A3A",
"$  c gray23",
"%  c #3B3C3C",
"&  c #583B02",
"*  c #5B3D02",
"=  c #553E0C",
"-  c #5D440E",
";  c #7C5700",
":  c #735E2F",
">  c #6A5A3A",
",  c #6B5B3A",
"<  c #7B632C",
"1  c #7F662E",
"2  c #776130",
"3  c #414141",
"4  c #444444",
"5  c #484848",
"6  c #494949",
"7  c #555656",
"8  c #575859",
"9  c #75674B",
"0  c #76684B",
"q  c #776E4F",
"w  c #796F4E",
"e  c #7C714E",
"r  c #7D7251",
"t  c #7C725C",
"y  c #7D735D",
"u  c #5C5F60",
"i  c #636465",
"p  c #646768",
"a  c #676868",
"s  c #686868",
"d  c #6B6C6D",
"f  c #7F7964",
"g  c #717273",
"h  c #727272",
"j  c #797979",
"k  c #78797A",
"l  c #7A7C7E",
"z  c #7C7C7C",
"x  c #7C7C7D",
"c  c #855D00",
"v  c #8C6802",
"b  c #8D6802",
"n  c #8E6A02",
"m  c #8E6B0A",
"M  c #8F6D0C",
"N  c #8F6E13",
"B  c #9A7917",
"V  c #91721B",
"C  c #8C6C21",
"Z  c #8E6E23",
"A  c #987727",
"S  c #9B7C25",
"D  c #9A7A2A",
"F  c #9F7E28",
"G  c #9E7F2C",
"H  c #937932",
"J  c #947A36",
"K  c #927B39",
"L  c #947F3F",
"P  c #887742",
"I  c #8A7A48",
"U  c #907E44",
"Y  c #8C7E5B",
"T  c #837D67",
"R  c #AE8414",
"E  c #AD8416",
"W  c #A0802C",
"Q  c #AD8D2B",
"!  c #A08636",
"~  c #A78735",
"^  c #A78736",
"/  c #A28939",
"(  c #A88E3F",
")  c #B59535",
"_  c #BD9C39",
"`  c #C8A33C",
"'  c #C9A53F",
"]  c #928047",
"[  c #8F805E",
"{  c #9D8854",
"}  c #A89041",
"|  c #B79843",
" . c #B99A46",
".. c #A78E52",
"X. c #A08C57",
"o. c #A48F57",
"O. c #A48F58",
"+. c #A99053",
"@. c #AC9454",
"#. c #AF9758",
"$. c #AE975E",
"%. c #AF975E",
"&. c #BFA04E",
"*. c #8D846A",
"=. c #8D866C",
"-. c #9B8C66",
";. c #9C8D65",
":. c #858177",
">. c #878379",
",. c #A79772",
"<. c #A89772",
"1. c #B6A779",
"2. c #B7A97B",
"3. c #C2A240",
"4. c #CFAC47",
"5. c #C0A24F",
"6. c #D1AF4B",
"7. c #D9BA5A",
"8. c #C7B272",
"9. c #C8B372",
"0. c #CDB670",
"q. c #CEB97A",
"w. c #D0BB7C",
"e. c #7E8082",
"r. c #888889",
"t. c #8C8B89",
"y. c #8A8B8C",
"u. c #8C8D8D",
"i. c #929086",
"p. c #9B9381",
"a. c #9D9582",
"s. c #969389",
"d. c #898F92",
"f. c #8D8E90",
"g. c #8B9194",
"h. c #8D9394",
"j. c #909596",
"k. c #909597",
"l. c #929697",
"z. c #9B9890",
"x. c #909598",
"c. c #959899",
"v. c #959A9C",
"b. c #999A9A",
"n. c #989C9F",
"m. c #9A9E9F",
"M. c #9C9F9F",
"N. c #A09D95",
"B. c #B5AA8C",
"V. c #B7AB8D",
"C. c #A5A397",
"Z. c #ACA692",
"A. c #AEA895",
"S. c #A8A598",
"D. c #A9A59C",
"F. c #ADA898",
"G. c #ACA89E",
"H. c #AEAA9F",
"J. c #B1AC9D",
"K. c #9EA1A0",
"L. c #9CA1A2",
"P. c #AEABA0",
"I. c #A6A7A8",
"U. c #ACAFAC",
"Y. c #BFB9A2",
"T. c #B4B6B3",
"R. c #B5B9BA",
"E. c #C3B385",
"W. c #C7B689",
"Q. c #C4BDA6",
"!. c #E2CB83",
"~. c #E2CC84",
"^. c #C7C3B7",
"/. c #CAC5B9",
"(. c #C9C6BA",
"). c #CCC8BC",
"_. c #D4CEBE",
"`. c #D5CFBF",
"'. c #BDBFC1",
"]. c #CACCCD",
"[. c #DCD8CD",
"{. c #CDCFD1",
"}. c #CED0D2",
"|. c #D1D3D3",
" X c #D1D4D6",
".X c #DFDBD0",
"XX c #D7DADC",
"oX c #D8D8D8",
"OX c #DBDCDC",
"+X c #E8E0C7",
"@X c #EAE2C9",
"#X c #E5E3D9",
"$X c #E2E1DF",
"%X c #EAE8DE",
"&X c #E3E3E1",
"*X c #E8E9E9",
"=X c #EBECED",
"-X c #EDEEEE",
";X c #EEEFEF",
":X c #F6F7F9",
">X c #F7F8FA",
",X c None",
/* pixels */
",X,X,X,X,X(.V.<.<.B.^.,X,X,X,X,X",
",X,X,X.XW. .E ; c E | E.[.,X,X,X",
",X,X_.w.6.' 5.$.%.&.` 4.q._.,X,X",
",X(.9.7.~.@X&X}.{.$X+X!.7.9.).,X",
",X2.3.0.#X:X;Xu.r.=X>X%X0._ 1.,X",
"C.( ) Y. X*XOX5 4 oX;XXXQ.Q ! S.",
"=.B } U.R.].b.+ + I. X'.T./ m *.",
"e n U x.v.j.d i 7 h x.L.n.U n r ",
"w v P h.x.u   % k 8 p h.d.I M w ",
"T N K K.c.$   @ 3 % s M.M.U V T ",
"s.H S Z.e.+ X 5 X . + l A.G H i.",
",X-.F @.G.u.x h s k y.S.#.W -.,X",
",XP.O.~ o.a.t.x x t.p...^ O.H.,X",
",X,XJ.X.H Z 2 > > : C A { F.,X,X",
",X,X,XN.[ C - * & = < Y z.,X,X,X",
",X,X,X,X,X>.t 0 9 t :.,X,X,X,X,X"
};
