/* XPM */
static char *c0c9bf572dbb4daabea523d937d4e17c[] = {
/* columns rows colors chars-per-pixel */
"64 64 203 2 ",
"   c #1C1C1C",
".  c #161616",
"X  c #1E1502",
"o  c #382702",
"O  c #2E2000",
"+  c #242424",
"@  c #2B2B2B",
"#  c #323232",
"$  c #3A3A3A",
"%  c #2F3030",
"&  c #2F1F00",
"*  c #432D00",
"=  c #4A3404",
"-  c #553B01",
";  c #553901",
":  c #473F2C",
">  c #5C4105",
",  c #684806",
"<  c #744B01",
"1  c #7C5805",
"2  c #795B18",
"3  c #6F520F",
"4  c #494334",
"5  c #544C38",
"6  c #6C5B2C",
"7  c #7C6329",
"8  c #7D6839",
"9  c #7E6110",
"0  c #3F4040",
"q  c #444444",
"w  c #4B4B4B",
"e  c #545554",
"r  c #5C5D5D",
"t  c #575858",
"y  c #575348",
"u  c #655D49",
"i  c #796A48",
"p  c #6A6558",
"a  c #756C57",
"s  c #7D725A",
"d  c #6C634D",
"f  c #6B6B6B",
"g  c #656564",
"h  c #787469",
"j  c #747474",
"k  c #7C7C7B",
"l  c #797A78",
"z  c #706E69",
"x  c #835C06",
"c  c #8E6901",
"v  c #896507",
"b  c #916C02",
"n  c #946D0A",
"m  c #996B03",
"M  c #94710C",
"N  c #9A7509",
"B  c #846413",
"V  c #8B6917",
"C  c #916E1B",
"Z  c #926E15",
"A  c #967413",
"S  c #94721D",
"D  c #9B791C",
"F  c #9A7816",
"G  c #AC7C01",
"H  c #A37603",
"J  c #A17E15",
"K  c #957423",
"L  c #9D7C24",
"P  c #9D7C2B",
"I  c #957628",
"U  c #876E34",
"Y  c #967B38",
"T  c #8B702B",
"R  c #A07F29",
"E  c #887445",
"W  c #927D45",
"Q  c #887A5A",
"!  c #837C68",
"~  c #817E77",
"^  c #B3860B",
"/  c #A7841A",
"(  c #B88C15",
")  c #BD921C",
"_  c #AE8107",
"`  c #9E8135",
"'  c #AC8B23",
"]  c #A2812C",
"[  c #AB8A27",
"{  c #B28E29",
"}  c #B4922D",
"|  c #BB9324",
" . c #A48533",
".. c #A98936",
"X. c #A98A39",
"o. c #A5873A",
"O. c #BA9836",
"+. c #AF913F",
"@. c #C49B2C",
"#. c #C19726",
"$. c #C39E34",
"%. c #CBA53B",
"&. c #C7A33A",
"*. c #9C8345",
"=. c #98875C",
"-. c #9F925D",
";. c #A58B47",
":. c #B49848",
">. c #AC9554",
",. c #BCA153",
"<. c #968964",
"1. c #888379",
"2. c #948C79",
"3. c #968C70",
"4. c #A49468",
"5. c #B09D6C",
"6. c #B6A169",
"7. c #B4A57B",
"8. c #C5A443",
"9. c #CCAC4B",
"0. c #CBA946",
"q. c #D1AD46",
"w. c #D4B24C",
"e. c #C7A954",
"r. c #D3B453",
"t. c #DABB5C",
"y. c #D7B858",
"u. c #CFB155",
"i. c #DCBF61",
"p. c #D6BA62",
"a. c #C6AF6A",
"s. c #DEC163",
"d. c #E1C364",
"f. c #7E7F81",
"g. c #7F8383",
"h. c #838484",
"j. c #858B8D",
"k. c #8B8B8B",
"l. c #8A8985",
"z. c #989489",
"x. c #898E90",
"c. c #878D90",
"v. c #8D9294",
"b. c #939393",
"n. c #929798",
"m. c #959A9B",
"M. c #9A9C9D",
"N. c #9A9A94",
"B. c #938E85",
"V. c #A29A88",
"C. c #A19E97",
"Z. c #B9AC8A",
"A. c #ABA597",
"S. c #B9B29D",
"D. c #B3AA91",
"F. c #9A9FA0",
"G. c #9DA1A3",
"H. c #A2A4A5",
"J. c #A3A7A8",
"K. c #A6A9AA",
"L. c #ABACAD",
"P. c #ABAAA3",
"I. c #B7B4A9",
"U. c #ABAFB0",
"Y. c #AEB1B2",
"T. c #B3B4B5",
"R. c #B6B9BA",
"E. c #BBBCBD",
"W. c #B7B8B6",
"Q. c #B2AFAA",
"!. c #9FA09F",
"~. c #C5B78B",
"^. c #C2BEB3",
"/. c #E8D792",
"(. c #C6C3B9",
"). c #D3CAAF",
"_. c #DCCD95",
"`. c #BCBFC0",
"'. c #BFC1C2",
"]. c #C2C4C4",
"[. c #CACCCD",
"{. c #C7C8C8",
"}. c #CDCFD0",
"|. c #CED1D1",
" X c #D2D4D5",
".X c #D6D8D9",
"XX c #DBDCDC",
"oX c #D7D8D6",
"OX c #D2D0CB",
"+X c #E4E3DC",
"@X c #F5EFD5",
"#X c #DEDFE0",
"$X c #DFE0E1",
"%X c #E3E4E4",
"&X c #E6E7E8",
"*X c #EBECEC",
"=X c #E8E9E7",
"-X c #F3F4F4",
";X c #FAFAFA",
":X c #F7F8F8",
">X c #F1F1EB",
",X c #E1DFDC",
"<X c None",
/* pixels */
"<X<X<X<X<X<X<X<X<X<X<X<X<X<X<X<X<X<X<X<X<X<X<X<X<X<X<X.XoX X XOXOX|. X.X.X<X<X<X<X<X<X<X<X<X<X<X<X<X<X<X<X<X<X<X<X<X<X<X<X<X<X<X",
"<X<X<X<X<X<X<X<X<X<X<X<X<X<X<X<X<X<X<X<X<X<X<X$X%X$XXX.X XOX{.].].{.OXOX.XXX$X%X%X<X<X<X<X<X<X<X<X<X<X<X<X<X<X<X<X<X<X<X<X<X<X<X",
"<X<X<X<X<X<X<X<X<X<X<X<X<X<X<X<X<X<X<X<X*X*X=X,XOXW.P.B.1.! s s s ! ! ~ B.C.W.OXXX&X&X&X<X<X<X<X<X<X<X<X<X<X<X<X<X<X<X<X<X<X<X<X",
"<X<X<X<X<X<X<X<X<X<X<X<X<X<X<X<X<X<X-X*X*XOXQ.B.Q E U C Z Z n m n n n V C U E Q 2.Q.}.&X>X-X<X<X<X<X<X<X<X<X<X<X<X<X<X<X<X<X<X<X",
"<X<X<X<X<X<X<X<X<X<X<X<X<X<X<X<X:X:X*XOXV.! W R / / ^ G G m m m m m H G G ^ J ' P E Q V.(.%X-X-X<X<X<X<X<X<X<X<X<X<X<X<X<X<X<X<X",
"<X<X<X<X<X<X<X<X<X<X<X<X<X<X;X;X;XOXV.Q ;.{ | ) ( ( ^ _ H ; ; ; ; > c G G G ^ ( ( ) } *.Q V.{.-X:X:X<X<X<X<X<X<X<X<X<X<X<X<X<X<X",
"<X<X<X<X<X<X<X<X<X<X<X<X<X;X;X=XP.Q ;.$.@.@.#.) ) ( ^ H m = ; = ; > c G H ^ ( ) ) #.@.@.$.;.Q A.,X;X;X<X<X<X<X<X<X<X<X<X<X<X<X<X",
"<X<X<X<X<X<X<X<X<X<X<X<X:X:XOX2.>.8.%.%.$.$.@.#.) ( ^ ^ H > - ; ; ; < G G ^ ( ) #.#.@.@.%.%.&.>.2.{.:X;X<X<X<X<X<X<X<X<X<X<X<X<X",
"<X<X<X<X<X<X<X<X<X<X*X>X*XI.4.,.w.w.q.%.%.@.@.#.#.( ( G G H H m m m m G ( ( ( ) #.#.@.%.%.%.w.q.,.4.I.=X-X<X<X<X<X<X<X<X<X<X<X<X",
"<X<X<X<X<X<X<X<X<X=X*X$XA.5.u.y.y.w.w.q.%.%.$.#.) ( ( G G H m A m H H G G G ( ) #.@.@.%.%.q.w.w.r.u.4.A.+X-X*X<X<X<X<X<X<X<X<X<X",
"<X<X<X<X<X<X<X<X%X&XXXD.5.p.i.i.t.w.w.q.%.%.@.#.{ { +.6.7.Z.S.S.S.S.D.7.>.:.{ { #.@.%.%.q.w.w.w.y.t.p.5.A.,X*X<X<X<X<X<X<X<X<X<X",
"<X<X<X<X<X<X<X<X$XoXD.6.p.i.d.s.t.t.w.w.q.%.$.e.~.).oXXXXXXX X}.}. X.X,XXXOX).~.,.$.%.%.q.w.y.t.t.i.i.p.6.D.oX=X<X<X<X<X<X<X<X<X",
"<X<X<X<X<X<X<X.X.XS.6.u.t.i.d.d.d.t.r.w.0.p.).+X*X&X%X#X.X.X|.[.}.|..X.XXX$X&X&X,X).a.q.q.w.y.t.i.d.d.i.y.6.D.oX$X<X<X<X<X<X<X<X",
"<X<X<X<X<X<XoXoXI.5.9.r.y.p.d.d.d.i.y.i./.>X-X-X*X&X%X#X.X.X X}.}.|..X.X,X%X&X&X*X>X>X_.i.r.t.d.d.d.i.y.u.e.7.I..XXX<X<X<X<X<X<X",
"<X<X<X<X<X|.|.(.7.e.9.r.y.t.t.s.i.i./.@X;X;X:X*X*X=X%X#XXX.X X}.}. X.X.X,X%X&X*X>X-X:X:X@X/.t.d.s.i.t.r.u.9.e.7.(..XoX<X<X<X<X<X",
"<X<X<X<X<X}.{.Z.,.0.9.u.u.y.y.t.i./.>X;X;X;X:X-X*X*X&X$XXX.X XT.L.|..X.X#X%X&X*X-X-X:X;X;X>X/.d.t.y.y.r.u.8.&.,.Z.{.oX<X<X<X<X<X",
"<X<X<X<X[.[.S.6.8.8.9.9.9.r.r.y./.+X*X-X:X;X:X:X-X*X&X&X#X.XR.q $ U..XXX#X&X*X*X-X:X:X;X:X-X*X/.y.r.u.w.9.8.8.O.6.S.}.|.<X<X<X<X",
"<X<X<X<X].W.5.O.O.8.8.9.9.9.w.~.+X%X*X*X:X:X:X:X:X*X&X$X$X.Xl + + g  X$X$X&X*X-X-X;X;X:X-X-X*X%X~.w.9.0.8.&.$.O.:.4.W.}.<X<X<X<X",
"<X<X<X'.E.A.;.O.&.8.&.8.8.8.a.|.#X%X%X=X-X:X;X;X:X*X*X&X$XE.0 @ @ # L.$X&X&X*X:X:X;X:X:X-X*X&X&XoXa.:.&.&.O.O.O.} >.V.'.{.<X<X<X",
"<X<X<X`.I.-.+.O.O.O.&.8.8.:.). X.X#X%X%X*X-X:X;X:X-X*X&X$Xg.@ + @ @ f .X&X*X*X:X;X;X:X-X*X&X%X#X$X).:.O.$.O.} } ' } -.I.{.<X<X<X",
"<X<XE.R.V.;.{ } O.O.O.&.O.7.}.|. X.XXX%X&X*X-X;X;X:X-X*X'.0 + @ + @ # T.*X*X-X:X;X:X-X*X&X%X#X.X.XoXZ.} } } } ' ' ' *.z.`.'.<X<X",
"<X<XT.U.<.] { } } } } } >.`.{.[.}. X.XXX#X&X*X-X;X;X-X*Xg.@ % @ @ @ @ f $X-X:X;X;X-X*X&X$XXX.X.X|.}.{.:.{ { ' ' / J ] <.Q.E.<X<X",
"<X<XY.N.W [ ' ' } } [ } Z.'.'.{.[.}.}..XXX$X&X*X:X;X:X[.0 @ @ + @ @ @ $ E.:X;X;X:X*X&X#XXX.X X|.[.[.].Z.[ / / / J J F *.V.R.<X<X",
"<XY.K.! I / ' ' ' [ ' 8.I.`.`.'.'.'.[.}..XXX$X&X*X:X;Xg.% @ % + + @ @ @ f -X;X-X*X&X$X.X.X|.}.[.{.].'.(.:./ J J J F N I h Y.R.<X",
"<XL.F.d F J / / ' [ ' a.R.R.R.R.'.'.'.{.}.|..X#X&X-X}.q % @ @ @ @ @ % % $ ].:X*X%X#X.X X}.[.{.'.'.`.`.R.a.J J N N N M Z d G.Y.<X",
"<XK.v.6 F J J / J / } D.Y.Y.U.R.R.'.'.'.'.[.|..X#X&Xg.% % % @ @ @ @ @ % @ j *X&XXX.X|.[.{.'.'.`.R.R.R.R.~./ M N b b b c 6 j.Y.<X",
"<XH.l 6 N J J J J J O.P.K.K.U.U.Y.Y.R.R.`.'.'.}. XR.0 % % % @ @ @ @ % % % k.%X.X X}.{.'.'.`.R.R.R.Y.Y.U.I.O.c c b c c c 6 j K.<X",
"G.F.p 9 N N N N N N :.G.G.G.J.K.K.U.U.U.R.R.`.'.[.n.$ @ % % % @ @ @ % % w [..X|.[.'.'.`.R.R.Y.Y.U.U.U.K.K.>.c c b c c c 2 p J.K.",
"G.n.u 9 M N N N N N -.m.F.F.F.G.G.J.K.K.U.U.R.R.`.`.K.f $ % % @ @ % # # v.oXH.H.'.R.R.Y.U.U.K.K.K.J.J.G.J.-.c c c c b c 9 y F.J.",
"n.v.5 9 b b b b b M 3.n.n.n.n.m.m.m.F.J.G.G.K.U.g.n.R.'.J.f $ @ @ % % w E.E.w t U.U.K.K.J.J.J.G.G.F.F.F.G.2.n c b b b c 9 5 v.G.",
"n.c.4 1 c c b b c v ! v.c.v.x.v.v.F.m.F.n.m.F.g.% % r n.R.}.Y.f # % % h.E.f.+ @ g.J.G.G.F.F.F.m.m.m.m.m.m.2.v b b b b b B 4 j.F.",
"v.g.: x c c b c c 9 l j.j.j.j.j.g.g.g.g.g.v.g.r       @ r g.R.[.M.q q m.v.$     e g.n.n.m.g.v.v.v.v.v.v.n.1.B b n b b b B : j.m.",
"m.g.: 1 c b b b v 1 ~ c.j.j.j.c.j.c.j.j.j.c.k @           @ r b.H.M.j.v.t       + f c.j.j.j.j.c.c.c.j.j.c.1.B n n b v n B 4 g.n.",
"m.g.4 1 c b b c c x ! c.c.c.c.c.c.c.c.v.v.b.e         + + + + @ r K.T.K.f @       q j.c.c.j.j.c.j.h.j.j.j.~ B M M M M M B 4 g.n.",
"m.c.5 9 b b b b n x ! x.x.v.v.n.b.n.n.m.m.h.#   +   + + + + + .   ~ R.Y.Y.b.t @   + f.n.v.v.c.c.x.c.c.c.c.h V A M M M M B w g.n.",
"m.n.e 9 b M b M n v ! n.n.n.n.m.m.M.M.F.G.r +   + + + + + +   . $ k.b.w j H.Y.v.t + 0 n.m.m.m.n.n.v.v.x.v.Q n A A A A M 7 w g.n.",
"F.m.r 2 c M M M n v i M.M.M.M.F.F.F.G.J.k.# + + + + @ + +       r k.t   + 0 j K.U.k.t h.H.F.M.M.m.m.m.m.m.E Z A F A A A 6 e v.m.",
"<XF.f 6 M M M M M M 7 N.F.M.F.F.H.H.J.K.g + + + + + @ + +     $ l f @ + + + + q f.L.U.H.K.J.H.!.F.F.F.m.b.i A A A A A A 6 g m.<X",
"<XG.f.5 M A A N A M T B.H.H.H.H.J.K.U.n.# + + + + + + +     + r l q       + + + @ w h.L.Y.U.L.J.J.H.G.G.B.T S D D F A S 5 l F.<X",
"<XH.v.y C A A A A A Z <.J.J.K.L.L.U.U.f + @ + + @ + +       q k r +       + + @ + + @ e k.U.Y.L.K.K.J.J.3.S D D F D F K y j.H.<X",
"<XK.G.z T M A F H K S Y A.L.L.L.Y.T.M.$ + @ + + + + +     + f j $ .       + + + + + @ + @ h.W.Y.U.U.K.P.*.D D F D D D U p m.H.<X",
"<X<XK.1.8 A F D D D D S V.Y.Y.Q.T.R.f + + + @ + + +       w ~ r           +   + + + + + + q L.R.T.Y.Y.V.I D ] ] F ] D i ~ H.<X<X",
"<X<XU.N.i I D D J D D D *.Q.T.T.R.H.$ + + + + + +       @ j k $ . .           + + + + @ + @ h.E.W.T.K.*.] ] D D ] D ` i N.K.<X<X",
"<X<XU.K.! U D D L D R L K 5.E.E.`.M.@ + + + + + +       e f.r   . . . .           + + + + @ l.].E.E.7.] D ] ] D D K 8 h J.U.<X<X",
"<X<X<XY.N.i L L R R R R R P S.'.`.W.h.j j f f g g r e e k h.r q q w w e e e r r g g f f f h.E.].'.S.+.] ] ] ] ] I P s z.U.<X<X<X",
"<X<X<XT.L.1.Y L R R R R R R >.(.].].].`.R.Y.L.H.C.b.b.k.h.k k j j k f.h.k.k.b.M.!.H.L.Y.W.`.'.].(.>.] ]  .] ] ] ] *.s P.T.<X<X<X",
"<X<X<X<XT.M.Q P R R R ..R R P a.(.'.E.T.Y.L.H.M.b.b.k.l.h.f.k j j l f.h.l.k.b.b.M.!.J.Q.T.T.E.(.6. .o. . .] ] ] ` s N.T.<X<X<X<X",
"<X<X<X<XR.T.1.*.R R R R X.R P P a.^.R.T.Q.P.!.M.b.b.k.l.h.f.k j j l f.f.l.k.k.b.N.!.H.L.Q.T.^.6.........] ` ] ] *.1.T.E.<X<X<X<X",
"<X<X<X<X<XE.P.<.*.P ]  .........R a.I.Q.L.H.M.N.b.k.k.h.h.k k j j k ~ f.h.k.k.b.b.M.H.H.Q.I.6.X.X.X.X.X... .R *.! Q.E.<X<X<X<X<X",
"<X<X<X<X<XE.E.C.<.o.]  .....X.X.+.R >.D.P.!.M.b.b.k.k.h.h.k j j j k k f.h.h.k.b.b.M.M.J.A.>.R o.X.X.X.X... .;.Q V.`.].<X<X<X<X<X",
"<X<X<X<X<X<X].E.B.=.o.] ..X.X.X.+.Y P Y 4.C.M.b.k.k.l.h.f.k j j j j k f.h.l.k.b.b.b.C.4.Y P P X.X.X.X.X...o.=.z.'.].<X<X<X<X<X<X",
"<X<X<X<X<X<X<X].E.B.-.o. .X.X.X.R R P P I E 3.B.b.k.k.f.f.k j j j j k f.h.h.k.b.b.3.Y K K P P R  . .X. .X.=.2.E.{.<X<X<X<X<X<X<X",
"<X<X<X<X<X<X<X<X].E.2.-.;. .o. .R P P P I K T U Q 1.l.h.h.~ k j j k k h.h.h.1.Q U V C K I P R R ]  . .o.-.2.I.{.<X<X<X<X<X<X<X<X",
"<X<X<X<X<X<X<X<X<X{.^.2.-.o. .P P P P P K C V V V 2 8 i a h h j h h h a i 7 2 B V C C K I L P P P ] ` -.2.Q.].<X<X<X<X<X<X<X<X<X",
"<X<X<X<X<X<X<X<X<X{.].T.2.=.*.R P P P I K K C V V V x < < < < 3 , , < < x x x V C C C C K I I P P ` <.1.L.`.<X<X<X<X<X<X<X<X<X<X",
"<X<X<X<X<X<X<X<X<X<X<XE.Y.B.! *.P P K K S C C B < > > , < ; = ; , ; ; ; > > > , x C C C S K K P *.! 1.J.R.<X<X<X<X<X<X<X<X<X<X<X",
"<X<X<X<X<X<X<X<X<X<X<X<XW.Q.B.h Q P K S C C V > = * & * = & * & < & & & X * * X = V V C C C Y E a l.L.T.<X<X<X<X<X<X<X<X<X<X<X<X",
"<X<X<X<X<X<X<X<X<X<X<X<X<XT.U.N.j s E I C B V = = * o o * o ; * < * o & X * * X * B V V I E a z b.K.Q.<X<X<X<X<X<X<X<X<X<X<X<X<X",
"<X<X<X<X<X<X<X<X<X<X<X<X<X<XU.K.!.1.z a E I V > > , > ; ; ; , ; < ; ; ; = ; = ; , V T E a p ~ !.K.L.<X<X<X<X<X<X<X<X<X<X<X<X<X<X",
"<X<X<X<X<X<X<X<X<X<X<X<X<X<X<X<XH.!.N.~ z d E U T 2 x x < < < < < < < < x x x U U E d p ~ b.!.H.<X<X<X<X<X<X<X<X<X<X<X<X<X<X<X<X",
"<X<X<X<X<X<X<X<X<X<X<X<X<X<X<X<X<X<X!.M.b.f.z p d i 8 8 7 2 2 x 3 2 B 7 7 8 d d p z ~ b.M.M.<X<X<X<X<X<X<X<X<X<X<X<X<X<X<X<X<X<X",
"<X<X<X<X<X<X<X<X<X<X<X<X<X<X<X<X<X<X<X<XM.N.b.k.~ j p p p u u u u u u p p g z ~ l.v.b.M.<X<X<X<X<X<X<X<X<X<X<X<X<X<X<X<X<X<X<X<X",
"<X<X<X<X<X<X<X<X<X<X<X<X<X<X<X<X<X<X<X<X<X<X<XN.b.k.k.h.k k ~ j j j ~ k l.b.k.k.b.<X<X<X<X<X<X<X<X<X<X<X<X<X<X<X<X<X<X<X<X<X<X<X",
"<X<X<X<X<X<X<X<X<X<X<X<X<X<X<X<X<X<X<X<X<X<X<X<X<X<X<Xk.k.h.f.f.f.h.h.k.k.<X<X<X<X<X<X<X<X<X<X<X<X<X<X<X<X<X<X<X<X<X<X<X<X<X<X<X"
};
