/* XPM */
static char *_394928de9e74d2fb1b5e4407ff90b90[] = {
/* columns rows colors chars-per-pixel */
"32 32 182 2 ",
"   c #1C1C1C",
".  c #372602",
"X  c #242424",
"o  c #2A2A2A",
"O  c #333434",
"+  c #3B3B3C",
"@  c #483103",
"#  c #553800",
"$  c #432D00",
"%  c #5F4100",
"&  c #644402",
"*  c #6A4B06",
"=  c #664608",
"-  c #72520C",
";  c #7C5700",
":  c #6F500C",
">  c #6C5927",
",  c #6D5E34",
"<  c #705D33",
"1  c #785F27",
"2  c #736237",
"3  c #796029",
"4  c #4E4E4E",
"5  c #444545",
"6  c #4F5151",
"7  c #555657",
"8  c #5C5C5C",
"9  c #7B6D49",
"0  c #746848",
"q  c #7A715E",
"w  c #6C6348",
"e  c #656565",
"r  c #6C6D6D",
"t  c #656768",
"y  c #7B7566",
"u  c #777268",
"i  c #747575",
"p  c #7B7C7C",
"a  c #7A7976",
"s  c #736F61",
"d  c #8C6806",
"f  c #916B02",
"g  c #916D0B",
"h  c #95720D",
"j  c #9A7406",
"k  c #8C6D15",
"l  c #8B6716",
"z  c #956E14",
"x  c #947313",
"c  c #94711E",
"v  c #9B7A1C",
"b  c #9B7815",
"n  c #8E701D",
"m  c #A87C09",
"M  c #A07D11",
"N  c #8C6F28",
"B  c #8D712D",
"V  c #9D7C25",
"C  c #95792A",
"Z  c #9C7C2A",
"A  c #967422",
"S  c #987B36",
"D  c #A07F26",
"F  c #877448",
"G  c #937E48",
"H  c #847758",
"J  c #837E6C",
"K  c #827E73",
"L  c #B1840B",
"P  c #A7841B",
"I  c #A98317",
"U  c #BA8F18",
"Y  c #9C8131",
"T  c #AE8C24",
"R  c #A2822D",
"E  c #B4922C",
"W  c #A48533",
"Q  c #A98A34",
"!  c #AA8B38",
"~  c #A78837",
"^  c #BC9C3B",
"/  c #B79736",
"(  c #C29928",
")  c #CAA43A",
"_  c #9A8347",
"`  c #968458",
"'  c #A58A45",
"]  c #AE9148",
"[  c #A4925E",
"{  c #B39E52",
"}  c #AE944D",
"|  c #BEA55E",
" . c #BEA046",
".. c #8A8368",
"X. c #9E8C62",
"o. c #848476",
"O. c #858477",
"+. c #948E7C",
"@. c #99947D",
"#. c #A99766",
"$. c #AF9F6F",
"%. c #B7A571",
"&. c #B4A36F",
"*. c #C4A342",
"=. c #CDAD4B",
"-. c #C1A34A",
";. c #D1AE47",
":. c #C6AC5D",
">. c #DBBC5C",
",. c #D6B757",
"<. c #D4B14A",
"1. c #C2AA65",
"2. c #CBB165",
"3. c #D6BB65",
"4. c #E0C364",
"5. c #E2CA77",
"6. c #7E8283",
"7. c #838485",
"8. c #868B8D",
"9. c #8C8C8C",
"0. c #898983",
"q. c #938F84",
"w. c #9A9588",
"e. c #8A8E90",
"r. c #8C9193",
"t. c #949494",
"y. c #929699",
"u. c #959A9B",
"i. c #9A9C9D",
"p. c #9E9C93",
"a. c #A49C84",
"s. c #A79F88",
"d. c #ADA287",
"f. c #A5A295",
"g. c #A7A499",
"h. c #B3AB93",
"j. c #BDB399",
"k. c #9A9EA1",
"l. c #9EA1A3",
"z. c #A2A4A4",
"x. c #A5A9AB",
"c. c #ABACAD",
"v. c #A5A8A7",
"b. c #BCB5A3",
"n. c #ABAFB1",
"m. c #ADB1B2",
"M. c #B3B4B4",
"N. c #BBBDBC",
"B. c #B8B8B7",
"V. c #C6B78E",
"C. c #C2B89E",
"Z. c #C4BCA4",
"A. c #C3BDAA",
"S. c #C0BDB4",
"D. c #DCCA90",
"F. c #C7C4B9",
"G. c #CFC7AA",
"H. c #BEC1C3",
"J. c #C2C4C4",
"K. c #C7C9CB",
"L. c #C9CBCC",
"P. c #C4C7C8",
"I. c #CFD2D3",
"U. c #D3D5D5",
"Y. c #DADBDC",
"T. c #D6D8D9",
"R. c #D0CFCA",
"E. c #E4DFCB",
"W. c #E8E2CD",
"Q. c #F1E9C8",
"!. c #DDDFE1",
"~. c #DFE1E3",
"^. c #E3E4E4",
"/. c #E6E7E8",
"(. c #EBECEC",
"). c #E8E7E6",
"_. c #F3F4F4",
"`. c #F7F8F8",
"'. c #F9FAFA",
"]. c #F7F7F8",
"[. c #EFF0F0",
"{. c None",
/* pixels */
"{.{.{.{.{.{.{.{.{.{.{.{.~.U.K.H.H.K.I.!.{.{.{.{.{.{.{.{.{.{.{.{.",
"{.{.{.{.{.{.{.{.{.[.Y.S.d.X.G S G G X.s.S.T.[.{.{.{.{.{.{.{.{.{.",
"{.{.{.{.{.{.{.{.^.b.[ Q I m f ; ; m m m Z #.j.Y.{.{.{.{.{.{.{.{.",
"{.{.{.{.{.{._.R.%.^ ( ( U L ; # % f L U ( ( ^ &.R._.{.{.{.{.{.{.",
"{.{.{.{.{.).Z.1.<.;.) ( U L m x z m m U ( ) ) ;.1.Z.).{.{.{.{.{.",
"{.{.{.{.Y.C.2.>.>.<.) *.1.V.Z.A.A.C.V.1.*.) ;.,.>.2.C.!.{.{.{.{.",
"{.{.{.U.Z.:.>.4.3.>.D.W.(.^.T.I.I.T.~.).E.D.,.>.4.>.:.C.Y.{.{.{.",
"{.{.{.F.| <.,.>.5.Q.'._.(.^.Y.P.J.T.~.(._.].Q.5.>.,.=.:.F.{.{.{.",
"{.{.F.&.*.=.=.3.E.[.`.`.[./.T.r t U.^.(.].'.`.W.3.=.*.^ %.F.{.{.",
"{.H.h.] ^  . .G.Y./._.`.].(.B.O O c.(._.'.`.(./.G. .^ E ! h.P.{.",
"{.n.[ E / / %.I.U.Y./._.`.(.i X X t /.`.`.(.~.T.I.%.E T P [ B.{.",
"{.p.Y T T / b.H.K.I.Y./.`.H.+ o o O N.'.(.~.T.I.K.A.Q I M C p.{.",
"x...b P P { m.M.N.H.K.T.~.a o o o o i ).!.U.K.H.H.N.{ j j d ..n.",
"k.9 h M M $.x.x.n.M.N.K.B.5 O o o O a U.L.H.N.M.n.n.$.f d d 0 l.",
"e., f j h +.u.k.k.l.x.x.k.y.t O o 5 v.8.n.n.x.x.l.l.@.g f d < r.",
"6.> f f d o.e.e.r.r.r.6.O 7 r.u.7 t a o p u.u.y.y.y.+.k f f > 8.",
"6.> f f l K 8.9.8.9.9.5     X 7 8.i.6   + 8.e.8.8.8.o.k h g > 6.",
"8.< f f l K y.t.y.i.6.o   X X   8 9.7.r + i u.r.r.r.o.k h h , 6.",
"u.w g h g ..k.k.l.z.7 X X X   o t + O t 7.e.z.k.k.u...n b n w r.",
"l.y k b h G z.x.n.r.O X X X   4 4     X + r l.c.x.l.` b b n s l.",
"{.0.N b M Z g.m.m.8 X X X   O e o     X X X 6 c.m.g.Y A v B 0.{.",
"{.z.F v D D [ B.v.+ X o X X 8 4       X X o O i.N.#.Z P V F i.{.",
"{.m.@.C D D Z h.N.t.9.7.i r p e 7 e r i p 7.t.N.j.W R R S +.m.{.",
"{.{.c.` S D D ] C.N.m.l.t.9.6.a a 7.0.t.z.c.M.C.} W R R ` v.{.{.",
"{.{.{.f._ R W ~ ] d.z.i.9.0.6.i a p 0.9.p.z.d.] ~ ! W _ f.{.{.{.",
"{.{.{.N.s.' ! ! Q S ` w.9.7.p i a p 7.9.q.` S W ! W ' a.N.{.{.{.",
"{.{.{.{.F.s.' W Z Z c B F H J u u y H F N c A Z R _ a.N.{.{.{.{.",
"{.{.{.{.{.B.w.G Z C c l - : & = = = = : l c A A G @.M.{.{.{.{.{.",
"{.{.{.{.{.{.M.q.H B c : @ $ $ @ @ . . . = k B H q.c.{.{.{.{.{.{.",
"{.{.{.{.{.{.{.{.t.K F 3 - * & = = & = = 1 F J t.{.{.{.{.{.{.{.{.",
"{.{.{.{.{.{.{.{.{.k.e.K H 0 2 < < 2 0 q a 9.{.{.{.{.{.{.{.{.{.{.",
"{.{.{.{.{.{.{.{.{.{.{.{.9.7.p a i p 7.9.{.{.{.{.{.{.{.{.{.{.{.{."
};
